<svg width="126" height="27" viewBox="0 0 126 27" fill="none" xmlns="http://www.w3.org/2000/svg">
<g clip-path="url(#clip0_54_55)">
<path d="M119.982 22.8516C121.96 20.0439 122.985 16.7236 122.985 13.3057C122.985 9.91211 121.96 6.61621 120.007 3.80859C118.981 2.29492 117.639 1.31836 115.881 1.31836H68.835C70.0068 1.66016 70.9834 2.51465 71.7646 3.68652C73.7178 6.54297 74.7432 9.86328 74.7432 13.3057C74.7432 16.7725 73.6934 20.1172 71.7402 22.9736C70.9346 24.1943 69.958 25.0732 68.7373 25.3906H115.905C117.614 25.415 118.957 24.4141 119.982 22.8516Z" fill="#000810"/>
<path d="M6.04199 3.85742C4.06445 6.68945 3.01465 9.98535 3.01465 13.4033C3.01465 16.8457 4.06445 20.166 6.06641 22.998C6.89648 24.5117 8.45898 25.3906 10.1924 25.3906H68.7129C69.9336 25.0488 70.9102 24.1699 71.7158 22.9736C73.6934 20.1172 74.7188 16.7725 74.7188 13.3057C74.7188 9.86328 73.6934 6.54297 71.7402 3.68652C70.959 2.51465 70.0068 1.66016 68.8105 1.31836H10.2168C8.45898 1.34277 6.87207 2.29492 6.04199 3.85742Z" fill="white"/>
<path d="M9.26465 3.75977H20.8369C21.667 3.75977 22.4482 3.85742 23.2051 4.07715C23.9619 4.29688 24.6211 4.61426 25.207 5.0293C25.793 5.44434 26.2324 5.98145 26.5986 6.61621C26.9404 7.25098 27.1113 7.9834 27.1113 8.83789C27.1113 9.52149 27.0381 10.1074 26.8672 10.6201C26.6963 11.1328 26.501 11.5479 26.2568 11.8896C26.0615 12.1826 25.8174 12.4023 25.5732 12.5977C25.5244 12.6465 25.2314 12.3779 25.6465 12.6221C26.0615 12.8662 26.4033 13.208 26.7207 13.5986C27.0381 13.9893 27.2822 14.4531 27.4531 14.9902C27.6484 15.5273 27.7217 16.0889 27.7217 16.6748C27.7217 17.5781 27.5508 18.3838 27.209 19.1162C26.8672 19.8486 26.4033 20.4346 25.8418 20.9473C25.2559 21.4355 24.5967 21.8262 23.8398 22.0703C23.083 22.3389 22.2773 22.4609 21.4473 22.4609H9.26465V3.75977ZM20.7881 11.5967C21.5449 11.5967 22.1553 11.5723 22.5703 11.1328C23.0098 10.6934 23.2051 10.3027 23.2051 9.69238C23.2051 9.05762 22.9854 8.66699 22.5703 8.22754C22.1309 7.78809 21.5449 7.76367 20.7881 7.76367H13.415V11.5723H20.7881V11.5967ZM21.0811 18.4814C21.9111 18.4814 22.4971 18.4814 22.8633 18.0908C23.2295 17.7002 23.4004 17.2852 23.4004 16.5527C23.4004 15.9424 23.2051 15.5518 22.8389 15.1123C22.4727 14.6729 21.8379 14.6484 20.959 14.6484H13.415V18.5059L21.0811 18.4814ZM29.4062 3.61328H46.6914V7.69043H34.1182V11.084H46.4473V15.2344H34.1182V18.5547H46.6914V22.4365H29.4062V3.61328ZM56.1152 7.6416H48.1562V3.61328H68.6641V7.6416H60.9492V22.4365H56.1152V7.6416Z" fill="#000810"/>
<path d="M82.4092 22.5586C81.2617 22.1924 80.2607 21.6553 79.4307 20.9473C78.6006 20.2637 77.9658 19.4336 77.4775 18.457C77.0137 17.5049 76.9893 16.4307 76.9893 15.2588V3.61328H82.0918V15.3076C82.0918 16.3086 82.4092 17.1387 83.0684 17.7734C83.7275 18.4082 85.6807 18.7256 86.9258 18.7256C88.0977 18.7256 90.0264 18.4326 90.6611 17.8223C91.2959 17.2119 91.6133 16.3818 91.6133 15.3076V3.61328H96.7891V15.2832C96.7891 16.5039 96.5693 17.5781 96.1055 18.5547C95.6416 19.5312 95.0068 20.3369 94.2012 21.0205C93.3955 21.6797 92.3945 22.2168 91.2227 22.583C90.0508 22.9492 88.1709 23.1201 86.7793 23.1201C85.4365 23.1201 83.5566 22.9492 82.4092 22.5586ZM117.541 17.1631C117.541 16.333 117.395 15.625 117.102 15.0146C116.809 14.4043 116.32 13.8672 115.637 13.4277C114.953 12.9639 114.074 12.5732 112.976 12.2314C111.877 11.8896 110.534 11.5723 108.947 11.2549C107.604 11.0107 106.555 10.7666 105.773 10.5469C104.992 10.3271 104.406 10.083 104.016 9.83887C103.625 9.59473 103.356 9.35059 103.259 9.08203C103.186 8.88672 103.112 8.64258 103.112 8.37402C103.161 7.71484 103.552 7.22656 104.309 6.93359C105.114 6.61621 106.188 6.46973 107.531 6.46973C108.996 6.46973 110.144 6.71387 110.925 7.20215C111.73 7.69043 112.121 8.37402 112.121 9.25293V9.42383V9.83887H116.882V9.42383V9.25293V8.83789C116.882 8.00781 116.687 7.22656 116.32 6.51855C115.954 5.81055 115.368 5.2002 114.587 4.71191C113.806 4.22363 112.829 3.83301 111.657 3.54004C110.485 3.27148 109.094 3.125 107.482 3.125C105.92 3.125 104.577 3.24707 103.43 3.49121C102.282 3.73535 101.33 4.10156 100.573 4.54102C99.8164 5.00488 99.2549 5.54199 98.8643 6.20117C98.498 6.83594 98.3027 7.56836 98.3027 8.34961C98.3027 8.42285 98.3027 8.49609 98.3027 8.56934C98.3027 8.64258 98.3027 8.69141 98.3027 8.76465C98.3027 9.52148 98.4736 10.1807 98.791 10.7666C99.1084 11.3281 99.5967 11.8408 100.256 12.2803C100.915 12.7197 101.745 13.1104 102.746 13.4277C103.747 13.7695 104.943 14.0869 106.311 14.3799C107.8 14.6973 108.996 14.9658 109.875 15.21C110.754 15.4541 111.437 15.7227 111.901 15.9668C112.365 16.2109 112.658 16.5039 112.78 16.7969C112.878 17.041 112.951 17.3096 112.976 17.627C112.927 18.2861 112.561 18.8232 111.853 19.1895C111.096 19.6045 109.802 19.7998 107.946 19.7998C105.993 19.7998 104.577 19.5312 103.747 18.9697C102.893 18.4082 102.478 17.6025 102.478 16.5771V16.0645V15.6494H97.9365V16.0645V16.7725V17.1875C97.9365 18.0664 98.1318 18.8477 98.5225 19.5801C98.9131 20.3125 99.5234 20.9229 100.329 21.46C101.159 21.9971 102.209 22.3877 103.454 22.6807C104.724 22.9736 106.237 23.1201 107.995 23.1201C111.218 23.1201 113.61 22.6318 115.173 21.6309C116.735 20.6543 117.517 19.2871 117.517 17.5781C117.517 17.5049 117.517 17.4316 117.517 17.3584C117.541 17.2852 117.541 17.2363 117.541 17.1631Z" fill="white"/>
<path d="M118.054 0C119.885 0 121.301 1.09863 122.375 2.7832C124.426 5.9082 125.5 9.5459 125.5 13.3301C125.5 17.1387 124.401 20.8008 122.351 23.9258C121.276 25.6348 119.86 26.7578 118.054 26.7578H8.06836C6.2373 26.7578 4.60156 25.8057 3.72266 24.0967C1.59863 20.9229 0.5 17.2363 0.5 13.4277C0.5 9.61914 1.59863 5.95703 3.67383 2.80762C4.55273 1.07422 6.21289 0 8.06836 0H118.054ZM115.881 1.34277H10.2168C8.45898 1.34277 6.87207 2.31934 6.04199 3.85742C4.06445 6.68945 3.01465 9.98535 3.01465 13.4033C3.01465 16.8457 4.06445 20.166 6.06641 22.998C6.89648 24.5117 8.45898 25.3906 10.1924 25.3906H115.881C117.59 25.3906 118.957 24.3896 119.958 22.8516C121.936 20.0439 122.961 16.7236 122.961 13.3057C122.961 9.91211 121.936 6.61621 119.982 3.80859C119.006 2.31934 117.639 1.34277 115.881 1.34277Z" fill="url(#paint0_linear_54_55)"/>
</g>
<defs>
<linearGradient id="paint0_linear_54_55" x1="63" y1="0" x2="63" y2="26.7578" gradientUnits="userSpaceOnUse">
<stop stop-color="#DFE4E7"/>
<stop offset="0.4159" stop-color="#DDE2E5"/>
<stop offset="0.6435" stop-color="#D5DADE"/>
<stop offset="0.825" stop-color="#C7CED2"/>
<stop offset="0.9821" stop-color="#B4BCC1"/>
<stop offset="1" stop-color="#B1B9BF"/>
</linearGradient>
<clipPath id="clip0_54_55">
<rect width="125" height="26.7334" fill="white" transform="translate(0.5)"/>
</clipPath>
</defs>
</svg>
