<svg width="51" height="36" viewBox="0 0 51 36" fill="none" xmlns="http://www.w3.org/2000/svg">
<rect x="1.55701" y="0.934816" width="48.1112" height="33.4105" rx="8.66821" fill="white"/>
<rect x="1.55701" y="0.934816" width="48.1112" height="33.4105" rx="8.66821" stroke="url(#paint0_linear_26_250)" stroke-width="1.33642"/>
<path d="M19.5149 8.89747C24.3905 5.4837 31.1107 6.66853 34.5248 11.5441C37.9389 16.42 36.7543 23.1408 31.8787 26.5548C27.0031 29.9688 20.2824 28.7833 16.8683 23.9074C13.4544 19.0315 14.6394 12.3114 19.5149 8.89747ZM22.3246 14.1904L20.0242 15.0799L20.4898 16.2965C20.4898 16.2965 21.3104 15.9619 21.3191 15.9757C21.7818 15.7982 22.0348 16.0083 22.1668 16.2227L24.1295 21.348C24.1643 21.5005 24.1667 21.7652 23.8439 21.8902C23.8601 21.8981 23.0212 22.2075 23.014 22.2101L23.3072 23.6572L25.6113 22.7782L26.3365 24.6703L27.4768 24.2318L26.7608 22.3596C27.076 22.245 27.3802 22.131 27.676 22.0168L28.3894 23.8802L29.5305 23.4412L28.8083 21.5518C30.6862 20.7025 31.8453 19.7036 31.3235 17.8415C30.8726 16.6092 29.974 15.9584 28.7843 16.1169C29.3184 15.5258 29.5058 14.7741 29.0315 13.8241C28.3848 12.5255 27.044 12.5229 25.5207 12.961L24.8038 11.0894L23.6619 11.5289L24.3595 13.3509C24.0598 13.4662 23.7553 13.5901 23.4526 13.7141L22.7502 11.88L21.6091 12.319L22.3246 14.1904ZM25.3014 18.4638C26.0758 18.1659 28.4176 17.0102 28.9823 18.4853C29.5238 19.8993 27.0341 20.6723 26.2603 20.9707L25.3014 18.4638ZM23.991 15.0431C24.636 14.7955 26.5828 13.8117 27.0969 15.1525C27.5885 16.4385 25.5062 17.0683 24.862 17.3171L23.991 15.0431Z" fill="#62A737"/>
<defs>
<linearGradient id="paint0_linear_26_250" x1="60.2252" y1="-5.01904" x2="-8.27478" y2="37.981" gradientUnits="userSpaceOnUse">
<stop offset="1" stop-color="white" stop-opacity="0.25"/>
</linearGradient>
</defs>
</svg>
