<svg width="50" height="35" viewBox="0 0 50 35" fill="none" xmlns="http://www.w3.org/2000/svg">
<rect x="0.933352" y="0.750979" width="48.1112" height="33.4105" rx="8.66821" fill="white"/>
<rect x="0.933352" y="0.750979" width="48.1112" height="33.4105" rx="8.66821" stroke="url(#paint0_linear_20_535)" stroke-width="1.33642"/>
<path d="M25.0731 6.76489C31.0249 6.76499 35.8502 11.5901 35.8504 17.5422C35.8504 23.4945 31.025 28.3205 25.0731 28.3206C19.121 28.3206 14.2957 23.4946 14.2957 17.5422C14.2959 11.59 19.1211 6.76489 25.0731 6.76489ZM24.3387 12.7122L21.9442 12.1213L21.6277 13.385C21.6277 13.385 22.4918 13.5816 22.491 13.5979C22.9719 13.7179 23.0586 14.0351 23.0438 14.2864L21.7117 19.6106C21.6528 19.7555 21.5029 19.9737 21.1668 19.8909C21.1724 19.9058 20.3113 19.679 20.3035 19.677L19.7137 21.0305L22.1053 21.6321L21.6141 23.5979L22.7996 23.8928L23.2869 21.9485C23.6109 22.0354 23.9255 22.1165 24.2332 22.1926L23.7488 24.1282L24.9354 24.4231L25.4276 22.4612C27.4529 22.8426 28.9753 22.6891 29.616 20.8645C29.9534 19.5965 29.5906 18.5479 28.5252 17.9954C29.3017 17.8175 29.8864 17.3093 30.0428 16.259C30.2579 14.8244 29.1611 14.0532 27.6619 13.5383L28.1483 11.594L26.9608 11.2991L26.4871 13.1917C26.1755 13.1142 25.855 13.041 25.5359 12.969L26.0125 11.0637L24.826 10.7688L24.3387 12.7122ZM24.326 17.9202C25.1313 18.1203 27.7123 18.517 27.3289 20.0491C26.9613 21.5177 24.4786 20.7231 23.6736 20.5237L24.326 17.9202ZM25.2147 14.3665C25.885 14.5336 28.044 14.8443 27.6961 16.2375C27.361 17.5727 25.2942 16.8945 24.6238 16.7288L25.2147 14.3665Z" fill="#F7931A"/>
<defs>
<linearGradient id="paint0_linear_20_535" x1="59.6016" y1="-5.20288" x2="-8.89844" y2="37.7971" gradientUnits="userSpaceOnUse">
<stop offset="1" stop-color="white" stop-opacity="0.25"/>
</linearGradient>
</defs>
</svg>
