<svg width="49" height="35" viewBox="0 0 49 35" fill="none" xmlns="http://www.w3.org/2000/svg">
<rect x="0.798277" y="0.970152" width="47.7263" height="32.9722" rx="8.44904" fill="white"/>
<rect x="0.798277" y="0.970152" width="47.7263" height="32.9722" rx="8.44904" stroke="url(#paint0_linear_20_463)" stroke-width="0.898076"/>
<g clip-path="url(#clip0_20_463)">
<path d="M24.6614 27.181C30.0323 27.181 34.3863 22.827 34.3863 17.4561C34.3863 12.0852 30.0323 7.7312 24.6614 7.7312C19.2905 7.7312 14.9365 12.0852 14.9365 17.4561C14.9365 22.827 19.2905 27.181 24.6614 27.181Z" fill="white"/>
<path d="M24.6614 6.55103C22.5046 6.55103 20.3962 7.1906 18.6028 8.38888C16.8095 9.58716 15.4117 11.2903 14.5863 13.283C13.761 15.2757 13.545 17.4683 13.9658 19.5837C14.3866 21.6991 15.4252 23.6423 16.9503 25.1674C18.4754 26.6925 20.4185 27.7311 22.5339 28.1519C24.6493 28.5727 26.842 28.3567 28.8347 27.5313C30.8273 26.7059 32.5305 25.3082 33.7288 23.5148C34.9271 21.7215 35.5666 19.6131 35.5666 17.4562C35.5708 16.0283 35.2937 14.6135 34.7511 13.2927C34.2085 11.9719 33.411 10.7708 32.4043 9.7582C31.3975 8.74555 30.2012 7.94112 28.8835 7.39084C27.5659 6.84055 26.1527 6.55518 24.7248 6.55103H24.6614ZM24.8463 17.8259L23.7109 21.6546H29.784C29.8242 21.6532 29.8643 21.6597 29.902 21.6738C29.9397 21.6879 29.9743 21.7093 30.0037 21.7368C30.0331 21.7643 30.0569 21.7973 30.0735 21.8339C30.0902 21.8705 30.0995 21.9101 30.1008 21.9503V22.0507L29.5727 23.8726C29.5495 23.9588 29.4976 24.0345 29.4256 24.0872C29.3536 24.14 29.2658 24.1667 29.1767 24.1631H19.8822L21.44 18.8557L19.6973 19.3838L20.0934 18.1692L21.8361 17.6411L24.0277 10.1949C24.0518 10.1092 24.1039 10.0341 24.1757 9.98144C24.2475 9.9288 24.3348 9.9017 24.4238 9.90444H26.7738C26.8141 9.90303 26.8542 9.90956 26.8919 9.92367C26.9296 9.93777 26.9641 9.95916 26.9936 9.98663C27.023 10.0141 27.0467 10.0471 27.0634 10.0837C27.08 10.1204 27.0893 10.1599 27.0907 10.2002V10.3005L25.2423 16.5849L26.9851 16.0568L26.6154 17.3242L24.8463 17.8259Z" fill="#345D9D"/>
</g>
<defs>
<linearGradient id="paint0_linear_20_463" x1="59.3136" y1="-5.20288" x2="-9.22038" y2="37.8676" gradientUnits="userSpaceOnUse">
<stop offset="1" stop-color="white" stop-opacity="0.25"/>
</linearGradient>
<clipPath id="clip0_20_463">
<rect width="21.8104" height="21.8104" fill="white" transform="translate(13.7562 6.55103)"/>
</clipPath>
</defs>
</svg>
