<svg width="210" height="22" viewBox="0 0 210 22" fill="none" xmlns="http://www.w3.org/2000/svg">
<g clip-path="url(#clip0_17_117)">
<path d="M71.03 15.2499C71.03 19.4499 68.3 21.8299 64.13 21.8299H47.36C43.3 21.8299 40.42 19.2999 40.42 15.2499V6.34995C40.5383 4.60992 41.3285 2.98404 42.6235 1.81589C43.9185 0.647742 45.617 0.0288322 47.36 0.0899467H64.13C68.68 0.0899467 71.03 2.93995 71.03 6.99995V15.2499ZM66.36 8.33995C66.36 4.99995 65.12 4.99995 63.82 4.76995H47.89C46.14 4.76995 45.12 5.21995 45.12 7.90995V13.8499C45.12 16.0599 45.88 17.0199 47.63 17.1199H63.86C65.15 17.1299 66.36 15.9999 66.36 13.8199V8.33995Z" fill="#CB2026"/>
<path d="M144.82 0.0899658H168.53C172.58 0.0899658 175.53 2.61997 175.53 6.66997V15.57C175.422 17.3119 174.636 18.9422 173.341 20.1122C172.046 21.2821 170.344 21.8987 168.6 21.83H144.82V0.0899658ZM149.52 17.09H168.52C169.134 17.0258 169.702 16.7371 170.115 16.2792C170.529 15.8214 170.758 15.2269 170.76 14.61V7.22997C170.726 6.59193 170.465 5.98696 170.025 5.52339C169.586 5.05982 168.995 4.76792 168.36 4.69997H149.52V17.09Z" fill="#CB2026"/>
<path d="M129.08 5.08C127.67 2.35 125.97 0 122.91 0C119.85 0 118.27 2.26 116.77 5.08L107.84 21.92H113.2C113.2 21.92 114.76 18.92 116.6 15.54H129.18L132.7 21.92H137.9L129.08 5.08ZM118.51 11.9L121.51 6.34C121.51 6.34 122.31 4.7 122.95 4.7C123.59 4.7 124.36 6.33 124.36 6.33L127.36 11.9H118.51Z" fill="#CB2026"/>
<path d="M91.12 15.8401C91.12 15.8401 91.82 17.2701 92.47 17.2701C93.12 17.2701 93.77 15.8401 93.77 15.8401L102.14 0.0600586H107.5L98.56 16.9001C97.06 19.7201 95.67 21.9801 92.46 21.9801C89.25 21.9801 87.79 19.7001 86.36 17.0001L77.44 0.0600586H82.79L91.12 15.8401Z" fill="#CB2026"/>
<path d="M30.58 10.87C31.81 9.64005 31.81 8.22005 31.81 6.81005C31.81 2.90005 30.81 0.0500488 24.96 0.0500488H0.899963V21.82H25C30.78 21.82 32.29 19.03 32.29 15.09C32.28 13.13 31.51 11.46 30.58 10.87ZM5.57996 4.76005H25.16C26.28 4.76005 27.07 5.32005 27.07 6.94005C27.07 8.56005 26.26 9.12005 25.16 9.12005H5.57996V4.76005ZM25.66 17.09H5.57996V12.73H25.66C26.78 12.73 27.57 13.3 27.57 14.91C27.57 16.52 26.75 17.09 25.66 17.09Z" fill="#CB2026"/>
<path d="M201.36 5.08C199.93 2.35 198.23 0 195.17 0C192.11 0 190.53 2.26 189.03 5.08L180.1 21.92H185.46C185.46 21.92 187.02 18.92 188.86 15.54H201.44L204.96 21.92H210.16L201.36 5.08ZM190.77 11.9L193.77 6.34C193.77 6.34 194.58 4.7 195.21 4.7C195.84 4.7 196.65 6.33 196.65 6.33L199.65 11.9H190.77Z" fill="#CB2026"/>
</g>
<defs>
<clipPath id="clip0_17_117">
<rect width="209.28" height="21.98" fill="white" transform="translate(0.359985)"/>
</clipPath>
</defs>
</svg>
