<svg width="50" height="35" viewBox="0 0 50 35" fill="none" xmlns="http://www.w3.org/2000/svg">
<rect x="0.955446" y="0.750979" width="48.1112" height="33.4105" rx="8.66821" fill="white"/>
<rect x="0.955446" y="0.750979" width="48.1112" height="33.4105" rx="8.66821" stroke="url(#paint0_linear_20_523)" stroke-width="1.33642"/>
<path d="M31.2606 8.10132C36.2971 8.10139 40.3798 12.232 40.3798 17.3269C40.3796 22.4217 36.297 26.5514 31.2606 26.5515C29.0024 26.5515 26.9373 25.7198 25.3446 24.3445C23.752 25.7195 21.6875 26.5515 19.4296 26.5515C14.3933 26.5514 10.3106 22.4217 10.3104 17.3269C10.3104 12.232 14.3932 8.10148 19.4296 8.10132C21.6871 8.10132 23.7521 8.93275 25.3446 10.3074C26.9372 8.93241 29.0027 8.10132 31.2606 8.10132Z" fill="#ED0006"/>
<path d="M31.2602 8.10132C36.2967 8.10132 40.3803 12.2319 40.3803 17.3269C40.3801 22.4218 36.2966 26.5515 31.2602 26.5515C29.0023 26.5514 26.9378 25.7196 25.3452 24.3445C27.3048 22.6525 28.5492 20.1375 28.5493 17.3269C28.5493 14.5159 27.3053 11.9995 25.3452 10.3074C26.9377 8.93263 29.0026 8.10139 31.2602 8.10132Z" fill="#F9A000"/>
<path d="M25.3452 10.3079C27.3052 11.9999 28.5493 14.5156 28.5493 17.3264C28.5493 20.1372 27.3051 22.6529 25.3452 24.345C23.3853 22.6529 22.1411 20.1373 22.1411 17.3264C22.1412 14.5156 23.3853 11.9999 25.3452 10.3079Z" fill="#FF5E00"/>
<defs>
<linearGradient id="paint0_linear_20_523" x1="59.6237" y1="-5.20288" x2="-8.87634" y2="37.7971" gradientUnits="userSpaceOnUse">
<stop offset="1" stop-color="white" stop-opacity="0.25"/>
</linearGradient>
</defs>
</svg>
