<svg width="49" height="35" viewBox="0 0 49 35" fill="none" xmlns="http://www.w3.org/2000/svg">
<rect x="0.475401" y="0.970152" width="47.7263" height="32.9722" rx="8.44904" fill="white"/>
<rect x="0.475401" y="0.970152" width="47.7263" height="32.9722" rx="8.44904" stroke="url(#paint0_linear_20_467)" stroke-width="0.898076"/>
<path d="M34.915 20.0942C33.4586 25.9364 27.5414 29.4918 21.6986 28.0349C15.8582 26.5785 12.3028 20.661 13.7599 14.8193C15.2158 8.97655 21.1329 5.42088 26.9739 6.87735C32.8163 8.33381 36.3715 14.252 34.9149 20.0944L34.915 20.0942H34.915Z" fill="#50AF95"/>
<path fill-rule="evenodd" clip-rule="evenodd" d="M25.7185 18.6926C25.6414 18.6983 25.243 18.7221 24.3543 18.7221C23.6475 18.7221 23.1456 18.7009 22.9695 18.6926C20.2379 18.5724 18.199 18.0969 18.199 17.5276C18.199 16.9582 20.2379 16.4834 22.9695 16.3613V18.219C23.1482 18.2318 23.6597 18.262 24.3665 18.262C25.2147 18.262 25.6395 18.2267 25.7159 18.2196V16.3626C28.4418 16.484 30.4762 16.9595 30.4762 17.5276C30.4762 18.0956 28.4424 18.5711 25.7159 18.6919L25.7185 18.6926ZM25.7185 16.1705V14.5081H29.5226V11.9731H19.1655V14.5081H22.9689V16.1698C19.8775 16.3118 17.5526 16.9242 17.5526 17.6581C17.5526 18.3919 19.8775 19.0036 22.9689 19.1463V24.4733H25.7179V19.1443C28.8023 19.0023 31.1233 18.3906 31.1233 17.6574C31.1233 16.9242 28.8042 16.3125 25.7179 16.1698L25.7185 16.1705Z" fill="white"/>
<defs>
<linearGradient id="paint0_linear_20_467" x1="58.9907" y1="-5.20288" x2="-9.54326" y2="37.8676" gradientUnits="userSpaceOnUse">
<stop offset="1" stop-color="white" stop-opacity="0.25"/>
</linearGradient>
</defs>
</svg>
