<svg width="49" height="35" viewBox="0 0 49 35" fill="none" xmlns="http://www.w3.org/2000/svg">
<rect x="0.5" y="0.919189" width="47.7748" height="33.0741" rx="8.5" fill="white"/>
<rect x="0.5" y="0.919189" width="47.7748" height="33.0741" rx="8.5" stroke="url(#paint0_linear_20_515)"/>
<path fill-rule="evenodd" clip-rule="evenodd" d="M15.1998 23.147H12.3662L10.2413 15.0404C10.1405 14.6675 9.92631 14.3378 9.61131 14.1825C8.82518 13.792 7.95892 13.4813 7.01392 13.3245V13.0124H11.5787C12.2087 13.0124 12.6812 13.4813 12.76 14.0257L13.8625 19.8733L16.6947 13.0124H19.4496L15.1998 23.147ZM21.0247 23.147H18.3485L20.5522 13.0124H23.2283L21.0247 23.147ZM26.6906 15.8201C26.7693 15.2743 27.2418 14.9622 27.7931 14.9622C28.6593 14.8838 29.6029 15.0405 30.3905 15.4297L30.863 13.2476C30.0755 12.9355 29.2092 12.7788 28.4231 12.7788C25.8257 12.7788 23.9357 14.1826 23.9357 16.1309C23.9357 17.613 25.2744 18.3913 26.2194 18.8601C27.2418 19.3276 27.6356 19.6397 27.5568 20.1071C27.5568 20.8084 26.7693 21.1205 25.9832 21.1205C25.0382 21.1205 24.0932 20.8867 23.2283 20.4963L22.7558 22.6796C23.7008 23.0687 24.7232 23.2255 25.6682 23.2255C28.5806 23.3025 30.3905 21.9 30.3905 19.795C30.3905 17.1442 26.6906 16.9888 26.6906 15.8201ZM39.7562 23.147L37.6313 13.0124H35.3489C34.8764 13.0124 34.4039 13.3245 34.2464 13.792L30.3117 23.147H33.0665L33.6164 21.6662H37.0013L37.3163 23.147H39.7562ZM35.7428 15.7417L36.5289 19.5613H34.3252L35.7428 15.7417Z" fill="#172B85"/>
<defs>
<linearGradient id="paint0_linear_20_515" x1="59" y1="-5.20288" x2="-9.5" y2="37.7971" gradientUnits="userSpaceOnUse">
<stop offset="1" stop-color="white" stop-opacity="0.25"/>
</linearGradient>
</defs>
</svg>
